<?xml version="1.0" encoding="UTF-8"?><svg xmlns="http://www.w3.org/2000/svg" viewBox="0 0 120.5 120.5"><defs><style>.d{fill:#ce0e2d;}</style></defs><g id="a"/><g id="b"><g id="c"><path class="d" d="M109,0H11.5C5.16,0,0,5.16,0,11.5V109c0,6.34,5.16,11.5,11.5,11.5H109c6.34,0,11.5-5.16,11.5-11.5V11.5c0-6.34-5.16-11.5-11.5-11.5ZM33.86,105.75c0,1.1-.9,2-2,2H15.49c-1.1,0-2-.9-2-2v-16.37c0-1.1,.9-2,2-2H31.86c1.1,0,2,.9,2,2v16.37Zm0-24.8c0,1.1-.9,2-2,2H15.49c-1.1,0-2-.9-2-2v-16.37c0-1.1,.9-2,2-2H31.86c1.1,0,2,.9,2,2v16.37Zm0-24.8c0,1.1-.9,2-2,2H15.49c-1.1,0-2-.9-2-2v-16.37c0-1.1,.9-2,2-2H31.86c1.1,0,2,.9,2,2v16.37Zm0-24.8c0,1.1-.9,2-2,2H15.49c-1.1,0-2-.9-2-2V14.99c0-1.1,.9-2,2-2H31.86c1.1,0,2,.9,2,2V31.36Zm24.7,74.39c0,1.1-.9,2-2,2h-16.37c-1.1,0-2-.9-2-2v-16.37c0-1.1,.9-2,2-2h16.37c1.1,0,2,.9,2,2v16.37Zm0-24.8c0,1.1-.9,2-2,2h-16.37c-1.1,0-2-.9-2-2v-16.37c0-1.1,.9-2,2-2h16.37c1.1,0,2,.9,2,2v16.37Zm0-24.8c0,1.1-.9,2-2,2h-16.37c-1.1,0-2-.9-2-2v-16.37c0-1.1,.9-2,2-2h16.37c1.1,0,2,.9,2,2v16.37Zm0-24.8c0,1.1-.9,2-2,2h-16.37c-1.1,0-2-.9-2-2V14.99c0-1.1,.9-2,2-2h16.37c1.1,0,2,.9,2,2V31.36Zm24.94,74.39c0,1.1-.9,2-2,2h-16.37c-1.1,0-2-.9-2-2v-16.37c0-1.1,.9-2,2-2h16.37c1.1,0,2,.9,2,2v16.37Zm0-24.8c0,1.1-.9,2-2,2h-16.37c-1.1,0-2-.9-2-2v-16.37c0-1.1,.9-2,2-2h16.37c1.1,0,2,.9,2,2v16.37Zm0-24.8c0,1.1-.9,2-2,2h-16.37c-1.1,0-2-.9-2-2v-16.37c0-1.1,.9-2,2-2h16.37c1.1,0,2,.9,2,2v16.37Zm0-24.8c0,1.1-.9,2-2,2h-16.37c-1.1,0-2-.9-2-2V14.99c0-1.1,.9-2,2-2h16.37c1.1,0,2,.9,2,2V31.36Zm24.24,74.39c0,1.1-.9,2-2,2h-16.37c-1.1,0-2-.9-2-2v-16.37c0-1.1,.9-2,2-2h16.37c1.1,0,2,.9,2,2v16.37Zm0-24.8c0,1.1-.9,2-2,2h-16.37c-1.1,0-2-.9-2-2v-16.37c0-1.1,.9-2,2-2h16.37c1.1,0,2,.9,2,2v16.37Zm0-24.8c0,1.1-.9,2-2,2h-16.37c-1.1,0-2-.9-2-2v-16.37c0-1.1,.9-2,2-2h16.37c1.1,0,2,.9,2,2v16.37Zm0-24.8c0,1.1-.9,2-2,2h-16.37c-1.1,0-2-.9-2-2V14.99c0-1.1,.9-2,2-2h16.37c1.1,0,2,.9,2,2V31.36Z"/></g></g></svg>