<?xml version="1.0" encoding="UTF-8"?><svg xmlns="http://www.w3.org/2000/svg" viewBox="0 0 120.5 120.5"><defs><style>.d{fill:#ce0e2d;}</style></defs><g id="a"/><g id="b"><g id="c"><path class="d" d="M109,0H11.5C5.16,0,0,5.16,0,11.5V109c0,6.34,5.16,11.5,11.5,11.5H109c6.34,0,11.5-5.16,11.5-11.5V11.5c0-6.34-5.16-11.5-11.5-11.5ZM56.12,104.94c0,1.65-1.35,3-3,3H15.85c-1.65,0-3-1.35-3-3v-37.28c0-1.65,1.35-3,3-3H53.12c1.65,0,3,1.35,3,3v37.28Zm0-51.94c0,1.65-1.35,3-3,3H15.85c-1.65,0-3-1.35-3-3V15.72c0-1.65,1.35-3,3-3H53.12c1.65,0,3,1.35,3,3V53Zm53.48,51.94c0,1.65-1.35,3-3,3h-37.28c-1.65,0-3-1.35-3-3v-37.28c0-1.65,1.35-3,3-3h37.28c1.65,0,3,1.35,3,3v37.28Zm0-51.94c0,1.65-1.35,3-3,3h-37.28c-1.65,0-3-1.35-3-3V15.72c0-1.65,1.35-3,3-3h37.28c1.65,0,3,1.35,3,3V53Z"/></g></g></svg>