<svg xmlns="http://www.w3.org/2000/svg" viewBox="0 0 42.75 28.72"><defs><style>.cls-1,.cls-5{fill:#231f20;}.cls-1{opacity:0.52;}.cls-2,.cls-6{fill:#fff;}.cls-2{opacity:0.75;}.cls-3{opacity:0.81;}.cls-4{opacity:0.63;}</style></defs><title>openarrow</title><g id="Layer_2" data-name="Layer 2"><g id="Layer_1-2" data-name="Layer 1"><polygon class="cls-1" points="1 14.13 42.43 14.13 21.72 28.72 1 14.13"/><polygon class="cls-2" points="0 12.75 41.43 12.75 20.72 27.34 0 12.75"/><g class="cls-3"><g class="cls-4"><rect class="cls-5" x="1" y="1.38" width="4.25" height="4.25"/><rect class="cls-5" x="1" y="7.25" width="4.25" height="4.25"/></g><g class="cls-4"><rect class="cls-5" x="7.25" y="1.38" width="4.25" height="4.25"/><rect class="cls-5" x="7.25" y="7.25" width="4.25" height="4.25"/></g><g class="cls-4"><rect class="cls-5" x="19.75" y="1.38" width="4.25" height="4.25"/><rect class="cls-5" x="19.75" y="7.25" width="4.25" height="4.25"/></g><g class="cls-4"><rect class="cls-5" x="26" y="1.38" width="4.25" height="4.25"/><rect class="cls-5" x="26" y="7.25" width="4.25" height="4.25"/></g><g class="cls-4"><rect class="cls-5" x="32.25" y="1.38" width="4.25" height="4.25"/><rect class="cls-5" x="32.25" y="7.25" width="4.25" height="4.25"/></g><g class="cls-4"><rect class="cls-5" x="38.5" y="1.38" width="4.25" height="4.25"/><rect class="cls-5" x="38.5" y="7.25" width="4.25" height="4.25"/></g><g class="cls-4"><rect class="cls-5" x="13.5" y="1.38" width="4.25" height="4.25"/><rect class="cls-5" x="13.5" y="7.25" width="4.25" height="4.25"/></g></g><g class="cls-4"><rect class="cls-6" width="4.25" height="4.25"/><rect class="cls-6" y="5.88" width="4.25" height="4.25"/></g><g class="cls-4"><rect class="cls-6" x="6.25" width="4.25" height="4.25"/><rect class="cls-6" x="6.25" y="5.88" width="4.25" height="4.25"/></g><g class="cls-4"><rect class="cls-6" x="18.75" width="4.25" height="4.25"/><rect class="cls-6" x="18.75" y="5.88" width="4.25" height="4.25"/></g><g class="cls-4"><rect class="cls-6" x="25" width="4.25" height="4.25"/><rect class="cls-6" x="25" y="5.88" width="4.25" height="4.25"/></g><g class="cls-4"><rect class="cls-6" x="31.25" width="4.25" height="4.25"/><rect class="cls-6" x="31.25" y="5.88" width="4.25" height="4.25"/></g><g class="cls-4"><rect class="cls-6" x="37.5" width="4.25" height="4.25"/><rect class="cls-6" x="37.5" y="5.88" width="4.25" height="4.25"/></g><g class="cls-4"><rect class="cls-6" x="12.5" width="4.25" height="4.25"/><rect class="cls-6" x="12.5" y="5.88" width="4.25" height="4.25"/></g></g></g></svg>