<svg xmlns="http://www.w3.org/2000/svg" xmlns:xlink="http://www.w3.org/1999/xlink" viewBox="0 0 36.25 35.58"><defs><style>.cls-1{fill:none;}.cls-2{clip-path:url(#clip-path);}.cls-3{fill:url(#linear-gradient);}.cls-4{fill:#fff;}</style><clipPath id="clip-path"><path class="cls-1" d="M4,25.33c-.86,1.33-2.94,4.05-.22,6.79a5.07,5.07,0,0,0,3.55,1.63h.22a7.67,7.67,0,0,0,4.51-1.92c1.25-1.11,7-6.44,7-6.44s5.71,5.41,6.73,6.32,4.62,3.71,8,.41c2.64-2.76,1-5.72.06-6.91C33.17,24.39,19,8.36,19,8.36s-14.38,16-15,17"/></clipPath><linearGradient id="linear-gradient" x1="25.45" y1="16.79" x2="44.52" y2="16.79" gradientTransform="translate(34.91 -2.84) rotate(90)" gradientUnits="userSpaceOnUse"><stop offset="0" stop-color="#fff"/><stop offset="1" stop-color="#fff" stop-opacity="0"/></linearGradient></defs><title>x-spinner</title><g id="Layer_2" data-name="Layer 2"><g id="Layer_1-2" data-name="Layer 1"><g class="cls-2"><rect class="cls-3" y="10.41" width="36.25" height="25.17"/></g><path class="cls-4" d="M34.27,1.63c-3.22-3.25-7-.82-8.27.29s-7,6.44-7,6.44S13.31,3,12.3,2s-4.62-3.7-8-.4c-2.64,2.76-1,5.71-.06,6.9.67.83,14.85,16.86,14.85,16.86s14.38-16,15-17c.85-1.33,2.93-4.06.21-6.79"/></g></g></svg>