<svg xmlns="http://www.w3.org/2000/svg" xmlns:xlink="http://www.w3.org/1999/xlink" viewBox="0 0 315.61 36.17"><defs><style>.cls-1{fill:none;}.cls-2{clip-path:url(#clip-path);}.cls-3{fill:url(#linear-gradient);}.cls-4{fill:#ce0e2d;}.cls-5{fill:#101820;}</style><clipPath id="clip-path"><path class="cls-1" d="M282.6,25.89c-.87,1.36-3,4.13-.22,6.92,3.29,3.31,7.16.83,8.43-.29s7.1-6.57,7.1-6.57,5.82,5.52,6.86,6.45,4.7,3.77,8.15.41c2.69-2.81,1-5.82.06-7-.68-.84-15.12-17.17-15.12-17.17S283.21,25,282.6,25.89"/></clipPath><linearGradient id="linear-gradient" x1="-102" y1="1334.99" x2="-100.27" y2="1334.99" gradientTransform="matrix(0, 22.78, 22.78, 0, -30113.3, 2332.13)" gradientUnits="userSpaceOnUse"><stop offset="0" stop-color="#ce0e2d"/><stop offset="0.21" stop-color="#ce0e2d"/><stop offset="0.65" stop-color="#fac5bd"/><stop offset="1" stop-color="#fac5bd"/></linearGradient></defs><title>illustrationx</title><g id="Layer_2" data-name="Layer 2"><g id="Layer_1-2" data-name="Layer 1"><g class="cls-2"><rect class="cls-3" x="279.61" y="8.61" width="36" height="27.56"/></g><path class="cls-4" d="M313.42,1.66C310.14-1.65,306.26.83,305,2s-7.1,6.56-7.1,6.56S292.07,3,291,2.07s-4.71-3.77-8.16-.41c-2.69,2.81-1,5.82-.05,7,.68.84,15.11,17.16,15.11,17.16S312.6,9.51,313.2,8.57c.87-1.35,3-4.12.22-6.91"/><path class="cls-5" d="M167.35,11.89l4.49,9.61h-9Zm8.81,18.82H181L167.33,3.32,153.48,30.71h5l2.59-5.6,12.42,0Zm77.7-16.81v17h-4.39V3.67l20.08,17.86V4.16h4.37V31.25L253.86,13.46Zm-14.21,3.66a9.68,9.68,0,1,1-19.36,0,9.68,9.68,0,1,1,19.36,0m4.22,0c0-7.57-5.36-13.74-13.92-13.74S216.09,10,216.09,17.51,221.4,31.25,230,31.25s13.92-6.2,13.92-13.69M205.8,4.16h4.39V30.88H205.8Zm-13.5,4H200v-4h-19.8l0,4H188V30.88h4.34Zm-59.11,8.2h4.43c2.83,0,4.72-1.35,4.72-4.13s-1.89-4.13-4.72-4.13h-4.43Zm12.43,14.52-8.2-10.65h-4.23V30.88H128.8V4.16h8.48c5.77,0,9.51,2.92,9.51,8.08,0,3.77-1.82,6.27-5,7.37l9.16,11.28ZM115.3,8.17H123v-4h-19.8l0,4H111V30.88h4.34Zm-51.69,23c-7.63,0-11.55-5-11.55-13.19V4.16h4.09V18c0,5.84,2.34,9.12,7.46,9.12s7.45-3.28,7.45-9.1V4.16H75.2V18c0,8.16-4,13.17-11.59,13.17m-30.07-.32H48.71v-4H37.91l0-22.72H33.54ZM12.21,4.16H16.6l0,22.72h10.8v4H12.21ZM0,30.88H4.39V4.16H0ZM90.27,7.69c-2.71,0-4.46,1.46-4.44,3.63,0,1.9,1.23,3.11,3.89,3.87l2.86.81c4.4,1.22,6.69,3.73,6.7,7.52,0,4.5-3.77,7.67-8.92,7.69a12.6,12.6,0,0,1-9.73-4.27l3.23-2.42a9.12,9.12,0,0,0,6.53,2.88c2.74,0,4.5-1.54,4.53-3.79,0-2.05-1.17-3.16-4-4l-2.64-.78c-4.46-1.29-6.78-3.81-6.8-7.55C81.42,7,85,3.83,90,3.79a11.27,11.27,0,0,1,9.18,4.38L96,10.4a8,8,0,0,0-5.76-2.71"/></g></g></svg>